<?xml version="1.0" standalone="no"?>
<!DOCTYPE svg PUBLIC "-//W3C//DTD SVG 20010904//EN"
 "http://www.w3.org/TR/2001/REC-SVG-20010904/DTD/svg10.dtd">
<svg version="1.0" xmlns="http://www.w3.org/2000/svg"
 width="30.000000pt" height="30.000000pt" viewBox="0 0 512.000000 512.000000"
 preserveAspectRatio="xMidYMid meet">
<metadata>
Created by potrace 1.16, written by Peter Selinger 2001-2019
</metadata>
<g transform="translate(0.000000,512.000000) scale(0.100000,-0.100000)"
fill="#e50f0f" stroke="none">
<path d="M2550 4875 c-439 -84 -796 -379 -893 -740 -45 -166 -55 -271 -36
-379 5 -34 15 -88 20 -120 49 -283 258 -623 587 -957 62 -64 102 -111 97 -118
-15 -25 -199 -102 -302 -127 -135 -33 -215 -30 -297 10 -94 46 -166 151 -166
240 0 17 10 65 21 106 58 217 54 323 -19 450 -69 122 -167 212 -302 280 -110
55 -194 74 -330 74 -102 0 -124 -3 -190 -28 -323 -121 -510 -426 -510 -830 0
-136 9 -202 46 -323 93 -311 320 -585 588 -708 122 -57 229 -79 386 -79 207
-1 329 29 555 139 216 106 390 233 611 450 69 69 128 125 131 125 2 0 27 -47
54 -105 89 -189 118 -385 72 -486 -47 -103 -153 -179 -250 -179 -26 0 -100 14
-163 30 -135 35 -212 38 -301 10 -81 -25 -202 -104 -266 -173 -56 -62 -145
-232 -168 -323 -20 -81 -20 -253 0 -325 43 -149 144 -293 269 -381 97 -68 162
-100 286 -139 101 -31 112 -33 270 -33 185 0 248 11 409 71 296 111 557 341
653 577 63 153 73 207 72 381 0 170 -7 208 -64 370 -41 117 -64 167 -127 274
-107 182 -183 279 -394 502 -118 126 -127 138 -111 151 29 26 239 108 315 125
114 24 193 21 263 -11 158 -72 207 -204 148 -397 -37 -122 -42 -219 -16 -305
82 -268 364 -464 667 -464 142 0 232 30 359 117 150 104 242 239 312 456 22
70 27 106 31 243 5 149 4 168 -21 274 -31 130 -68 229 -133 350 -124 232 -335
423 -547 494 -157 53 -392 64 -553 26 -138 -33 -347 -126 -500 -222 -111 -70
-300 -227 -423 -352 -63 -64 -119 -116 -125 -116 -37 1 -137 247 -156 385 -16
116 -3 178 55 259 34 47 57 68 101 91 79 39 143 39 318 -4 l137 -34 86 21
c171 42 303 150 391 319 72 137 97 237 90 368 -9 175 -73 313 -207 446 -164
163 -368 243 -650 254 -67 3 -132 -1 -180 -10z"/>
</g>
</svg>
